<?xml version="1.0" standalone="no"?>
<!DOCTYPE svg PUBLIC "-//W3C//DTD SVG 20010904//EN"
 "http://www.w3.org/TR/2001/REC-SVG-20010904/DTD/svg10.dtd">
<svg version="1.0" xmlns="http://www.w3.org/2000/svg"
 width="700.000000pt" height="700.000000pt" viewBox="0 0 700.000000 700.000000"
 preserveAspectRatio="xMidYMid meet">
<metadata>
Created by potrace 1.11, written by Peter Selinger 2001-2013
</metadata>
<g transform="translate(0.000000,700.000000) scale(0.100000,-0.100000)"
fill="#000000" stroke="none">
<path d="M48 6642 c-21 -2 -38 -5 -38 -7 0 -7 62 -121 71 -129 5 -6 9 -18 9
-27 0 -10 3 -19 8 -21 4 -1 19 -25 33 -53 32 -62 125 -240 189 -360 101 -191
144 -273 185 -350 58 -109 162 -307 199 -380 17 -33 33 -62 37 -65 3 -3 11
-21 19 -40 8 -19 16 -37 19 -40 4 -3 20 -32 37 -65 45 -89 162 -311 202 -385
19 -36 62 -117 95 -180 33 -63 64 -121 69 -127 6 -7 7 -13 3 -13 -5 0 -1 -8 7
-17 8 -10 52 -90 98 -178 46 -88 101 -194 123 -235 22 -41 58 -111 81 -155 22
-44 43 -82 46 -85 3 -3 24 -43 48 -90 92 -180 137 -265 145 -268 4 -2 7 -11 7
-20 0 -9 9 -28 20 -42 11 -14 20 -33 20 -42 0 -10 4 -18 8 -18 5 0 19 -24 32
-52 13 -29 34 -70 47 -90 13 -21 20 -38 16 -38 -5 0 -3 -4 2 -8 6 -4 22 -29
36 -57 23 -43 90 -171 171 -325 12 -25 26 -46 31 -48 4 -2 7 -11 7 -20 0 -9 9
-28 20 -42 11 -14 20 -32 20 -42 0 -9 3 -18 8 -20 4 -1 21 -30 38 -63 73 -143
89 -172 108 -200 12 -16 20 -31 18 -33 -3 -2 28 -63 87 -172 22 -41 62 -118
88 -170 27 -52 51 -96 56 -98 4 -2 7 -12 7 -23 0 -10 3 -19 8 -19 4 0 12 -10
17 -23 9 -19 104 -200 182 -346 12 -24 23 -50 23 -57 0 -7 3 -14 8 -16 4 -2
32 -52 62 -113 30 -60 57 -112 60 -115 3 -3 17 -27 31 -55 70 -133 160 -306
187 -358 17 -31 35 -64 42 -72 7 -8 9 -15 4 -15 -5 0 -4 -4 1 -8 6 -4 31 -47
56 -97 25 -49 70 -135 99 -190 29 -55 71 -134 92 -175 22 -41 43 -79 48 -83 4
-4 31 41 61 100 29 59 56 110 59 113 3 3 15 25 27 50 12 25 56 108 98 185 41
77 84 160 96 185 12 25 25 47 28 50 4 3 13 21 21 40 8 19 16 37 19 40 3 3 29
50 57 105 29 55 67 129 85 165 19 36 39 68 44 72 6 4 7 8 2 8 -4 0 -1 10 7 23
16 24 70 125 132 247 21 41 41 77 44 80 3 3 22 39 42 80 21 41 65 127 99 190
33 63 94 180 136 260 42 80 88 168 103 195 25 46 63 118 195 370 124 237 148
281 195 370 94 177 147 280 181 345 18 36 37 67 41 68 4 2 8 12 8 23 0 10 5
19 10 19 6 0 10 7 10 15 0 8 4 15 10 15 5 0 9 4 7 8 -3 10 44 104 56 113 5 3
9 10 9 15 1 12 21 58 28 64 3 3 25 43 49 90 40 79 76 146 186 355 23 44 69
132 102 195 34 63 76 144 95 180 19 36 52 99 73 140 21 41 49 92 62 112 13 21
23 44 23 53 0 8 5 15 10 15 6 0 10 9 10 20 0 11 4 20 9 20 4 0 20 26 34 58 14
31 33 66 41 77 9 11 16 28 16 37 0 9 4 18 8 20 5 2 51 84 102 183 51 99 96
185 100 190 4 6 38 71 76 145 38 74 73 138 79 142 5 4 6 8 2 8 -5 0 0 12 10
28 11 15 35 59 55 97 20 39 57 111 83 160 26 50 74 142 107 205 102 196 112
215 123 230 6 8 20 35 30 60 11 25 22 47 26 50 4 3 23 38 43 78 31 62 34 72
19 73 -10 0 -324 0 -697 1 l-679 0 -18 -23 c-10 -13 -16 -26 -13 -28 2 -2 0
-9 -5 -15 -9 -11 -43 -74 -146 -271 -32 -60 -62 -116 -68 -122 -5 -7 -6 -13
-1 -13 5 0 4 -4 -1 -8 -6 -4 -26 -38 -45 -77 -19 -38 -37 -72 -40 -75 -3 -3
-38 -69 -78 -146 -92 -182 -106 -208 -112 -214 -3 -3 -26 -45 -50 -95 -25 -49
-47 -92 -50 -95 -3 -3 -20 -34 -38 -70 -124 -241 -217 -416 -225 -421 -5 -3
-9 -9 -9 -12 0 -19 -12 -47 -19 -47 -5 0 -9 -9 -9 -20 0 -11 -4 -20 -10 -20
-5 0 -10 -9 -10 -19 0 -11 -4 -21 -8 -23 -4 -1 -25 -37 -45 -78 -21 -41 -51
-100 -68 -130 -31 -56 -168 -316 -223 -425 -17 -33 -33 -62 -36 -65 -3 -3 -22
-39 -43 -80 -20 -41 -55 -109 -78 -150 -56 -103 -83 -154 -84 -160 0 -3 -7
-16 -14 -30 -46 -83 -77 -141 -99 -185 -14 -27 -55 -106 -92 -175 -37 -69 -98
-183 -135 -255 -37 -71 -80 -152 -95 -180 -15 -27 -51 -96 -80 -153 -29 -56
-57 -99 -61 -95 -4 4 -33 58 -64 118 -32 61 -79 151 -105 200 -27 50 -68 128
-91 175 -24 47 -46 87 -49 90 -5 5 -80 149 -182 350 -24 47 -45 87 -48 90 -3
3 -21 37 -40 75 -19 39 -38 72 -42 73 -5 2 -8 12 -8 22 0 10 -3 20 -7 22 -5 2
-22 30 -39 63 -16 33 -54 105 -83 160 -30 55 -73 138 -98 185 -24 47 -65 126
-91 175 -27 50 -79 149 -116 220 -38 72 -85 162 -106 200 -20 39 -57 108 -81
155 -24 47 -47 87 -51 88 -5 2 -8 12 -8 22 0 10 -3 20 -7 22 -5 2 -36 57 -69
123 -34 66 -72 138 -84 160 -13 22 -48 90 -80 150 -127 246 -193 370 -201 380
-5 5 -9 17 -9 26 0 10 -4 19 -8 21 -5 2 -48 80 -97 173 -48 94 -92 172 -97
173 -4 2 -8 9 -8 16 0 18 -24 66 -32 66 -5 0 -8 9 -8 19 0 11 -3 21 -8 23 -4
2 -22 33 -41 71 -19 37 -39 67 -45 68 -47 2 -1319 3 -1348 1z"/>
</g>
</svg>
