<?xml version="1.0" standalone="no"?>
<!DOCTYPE svg PUBLIC "-//W3C//DTD SVG 20010904//EN"
 "http://www.w3.org/TR/2001/REC-SVG-20010904/DTD/svg10.dtd">
<svg version="1.0" xmlns="http://www.w3.org/2000/svg"
 width="700.000000pt" height="700.000000pt" viewBox="0 0 700.000000 700.000000"
 preserveAspectRatio="xMidYMid meet">
<metadata>
Created by potrace 1.11, written by Peter Selinger 2001-2013
</metadata>
<g transform="translate(0.000000,700.000000) scale(0.100000,-0.100000)"
fill="#000000" stroke="none">
<path d="M446 6135 c4 -11 12 -27 19 -35 6 -8 23 -35 37 -60 13 -25 34 -62 46
-83 13 -21 40 -68 61 -105 21 -37 89 -155 151 -262 63 -107 120 -206 127 -220
8 -14 23 -41 35 -60 11 -19 71 -123 133 -230 62 -107 122 -211 134 -230 11
-19 24 -42 28 -50 9 -19 269 -469 283 -490 6 -8 13 -22 17 -30 4 -8 27 -49 51
-90 45 -76 66 -111 108 -187 13 -23 53 -92 89 -153 36 -61 65 -113 65 -116 0
-3 13 -25 30 -49 16 -24 30 -46 30 -49 0 -3 14 -29 31 -58 36 -61 507 -876
536 -928 11 -19 77 -134 148 -255 70 -121 137 -237 149 -258 11 -21 26 -46 31
-55 31 -52 255 -438 346 -598 13 -23 89 -155 169 -293 80 -138 156 -271 170
-297 l25 -46 20 27 c11 14 36 55 55 89 30 53 197 344 318 553 19 32 44 76 56
98 13 22 71 123 131 225 59 102 117 203 129 225 25 44 830 1441 845 1465 6 8
50 85 99 170 146 252 313 541 350 605 19 33 46 80 59 105 14 25 28 50 33 55 4
6 19 30 32 55 14 25 58 101 98 170 40 69 81 141 92 160 24 42 238 411 264 457
11 17 48 83 84 145 35 62 70 122 77 133 7 11 16 27 20 35 10 19 200 348 259
449 24 40 42 76 40 80 -2 3 -531 6 -1175 6 -1159 0 -1171 0 -1184 -20 -8 -11
-29 -47 -47 -80 -18 -33 -52 -91 -75 -130 -22 -38 -44 -77 -48 -85 -4 -8 -16
-28 -26 -45 -10 -16 -62 -106 -116 -200 -54 -93 -109 -187 -122 -207 -12 -21
-23 -40 -23 -42 0 -3 -25 -46 -55 -97 -30 -50 -55 -93 -55 -94 0 -2 -21 -39
-46 -82 -26 -43 -55 -93 -65 -111 l-17 -34 -15 24 c-27 42 -661 1142 -675
1171 -7 15 -19 28 -25 28 -7 1 -537 2 -1179 3 -1163 1 -1168 1 -1162 -19z"/>
</g>
</svg>
