<?xml version="1.0" standalone="no"?>
<!DOCTYPE svg PUBLIC "-//W3C//DTD SVG 20010904//EN"
 "http://www.w3.org/TR/2001/REC-SVG-20010904/DTD/svg10.dtd">
<svg version="1.0" xmlns="http://www.w3.org/2000/svg"
 width="700.000000pt" height="700.000000pt" viewBox="0 0 700.000000 700.000000"
 preserveAspectRatio="xMidYMid meet">
<metadata>
Created by potrace 1.11, written by Peter Selinger 2001-2013
</metadata>
<g transform="translate(0.000000,700.000000) scale(0.100000,-0.100000)"
fill="#000000" stroke="none">
<path d="M4290 5553 c-409 -698 -793 -1351 -853 -1452 -118 -199 -756 -1364
-865 -1578 -37 -73 -70 -133 -74 -133 -5 0 -8 12 -8 26 0 99 -166 1172 -455
2942 -129 793 -235 1445 -235 1447 0 3 -398 5 -885 5 -703 0 -885 -3 -885 -13
0 -6 297 -1497 660 -3312 363 -1815 660 -3301 660 -3302 0 -2 348 -3 773 -3
l772 0 2035 3311 c1119 1822 2037 3316 2038 3320 2 5 -419 9 -965 9 l-970 0
-743 -1267z"/>
</g>
</svg>
